# xmcd
#
# Track frame offsets:
#	150
#	1197
#	17901
#	28695
#	29619
#	43328
#	57544
#	69719
#	88007
#	102527
#	103146
#	117441
#	118507
#	132530
#	147546
#	160196
#
# Disc length: 2326 seconds
#
# Revision: 0
# Processed by: cddbd v1.5.1PL0 Copyright (c) Steve Scherf et al.
# Submitted via: EasyCDDAExtractor 8.2.3.1
#
DISCID=f0091410
DTITLE=Various Artist - HILLCREST 26
DYEAR=2005
DGENRE=Country
TTITLE0=Lucie Diamond - Radio Id
TTITLE1=Lucie Diamond and Arly Karlsen - Always On My Mind
TTITLE2=Patrick Glenn - Hot On The Heels
TTITLE3=Clelia Adams - Radio Id
TTITLE4=Clelia Adams - Yodellin Blues
TTITLE5=Kiera Lee - Good Thing
TTITLE6=Scott Markley - Morning Sun
TTITLE7=Rachael Warwick - One Last Look At Love
TTITLE8=Karen Tobin - Wishing Well
TTITLE9=Danny Mack - Radio Id
TTITLE10=Danny Mack - The Cement City Cowboy
TTITLE11=Sherry Kennedy Radio Id - Radio Id
TTITLE12=Sherry Kennedy - When I'm In Love
TTITLE13=John Carter - She Called
TTITLE14=Ann Pascoe - How Much Is Love
TTITLE15=Neon Blue - Thenk God For The Simple Man
EXTD=
EXTT0=
EXTT1=
EXTT2=
EXTT3=
EXTT4=
EXTT5=
EXTT6=
EXTT7=
EXTT8=
EXTT9=
EXTT10=
EXTT11=
EXTT12=
EXTT13=
EXTT14=
EXTT15=
PLAYORDER=
